<svg width="112" height="97" viewBox="0 0 112 97" fill="none" xmlns="http://www.w3.org/2000/svg">
<path opacity="0.2" fill-rule="evenodd" clip-rule="evenodd" d="M13.436 60.2193C12.2501 49.3313 22.1491 41.3541 28.6322 32.5447C32.6815 27.0425 36.8977 21.5698 43.4043 19.4977C49.2668 17.6306 54.8238 21.7081 60.9552 22.2508C72.0955 23.2369 85.1664 16.0881 93.1853 23.904C101.92 32.4177 105.614 48.9251 98.3756 58.7235C91.1395 68.5183 74.4289 58.2969 63.629 63.9116C51.3938 70.2725 48.8275 92.6482 35.0685 91.6361C21.9057 90.6678 14.867 73.3576 13.436 60.2193Z" fill="#69DADB"/>
<g clip-path="url(#clip0_200_1378)">
<rect x="25.0002" y="44" width="14" height="35" fill="#DFE8FF"/>
<path d="M24.0002 79.0001C24.0002 80.1047 24.8957 81.0001 26.0002 81.0001H38.4519C39.022 81.0001 39.4842 80.5379 39.4842 79.9678C39.4842 79.3977 39.022 78.9355 38.4519 78.9355H28.0648C26.9602 78.9355 26.0648 78.0401 26.0648 76.9355V46.871C26.0648 45.7664 26.9602 44.871 28.0648 44.871H38.452C39.0221 44.871 39.4842 44.4089 39.4842 43.8388C39.4842 43.2688 39.0221 42.8066 38.452 42.8066H26.0002C24.8957 42.8066 24.0002 43.7021 24.0002 44.8066V79.0001Z" fill="#193498"/>
<rect x="73.0002" y="44" width="14" height="35" fill="#DFE8FF"/>
<path d="M73.5485 42.8066C72.9784 42.8066 72.5163 43.2688 72.5163 43.8388C72.5163 44.4089 72.9784 44.871 73.5485 44.871H83.9357C85.0403 44.871 85.9357 45.7664 85.9357 46.871V76.9355C85.9357 78.0401 85.0403 78.9355 83.9357 78.9355H73.5486C72.9785 78.9355 72.5163 79.3977 72.5163 79.9678C72.5163 80.5379 72.9785 81.0001 73.5486 81.0001H86.0003C87.1048 81.0001 88.0003 80.1047 88.0003 79.0001V44.8066C88.0003 43.7021 87.1048 42.8066 86.0003 42.8066H73.5485Z" fill="#193498"/>
<path d="M35.3551 47.9678H29.1616V54.1612H35.3551V47.9678ZM33.2905 52.0969H31.226V50.0323H33.2905V52.0969Z" fill="#193498"/>
<path d="M35.3551 57.2581H29.1616V63.4515H35.3551V57.2581ZM33.2905 61.3872H31.226V59.3226H33.2905V61.3872Z" fill="#1597E5"/>
<path d="M29.1616 72.742H35.3551V66.5486H29.1616V72.742ZM31.226 68.6129H33.2905V70.6775H31.226V68.6129Z" fill="#193498"/>
<path d="M82.8388 47.9678H76.6454V54.1612H82.8388V47.9678ZM80.7745 52.0969H78.7099V50.0323H80.7745V52.0969Z" fill="#193498"/>
<path d="M76.6454 63.4518H82.8388V57.2583H76.6454V63.4518ZM78.7099 59.3226H80.7745V61.3872H78.7099V59.3226Z" fill="#1597E5"/>
<path d="M76.6454 72.742H82.8388V66.5486H76.6454V72.742ZM78.7099 68.6129H80.7745V70.6775H78.7099V68.6129Z" fill="#193498"/>
<path d="M72.5485 79C72.5485 79.5523 72.1008 80 71.5485 80H40.4519C39.8996 80 39.4519 79.5523 39.4519 79V27.2581C39.4519 26.7058 39.8996 26.2581 40.4519 26.2581H71.5487C72.101 26.2581 72.5487 26.7058 72.5487 27.2581L72.5485 79Z" fill="#DFE8FF" stroke="#193498" stroke-width="2"/>
<path d="M71.5163 19.0646C72.0685 19.0646 72.5163 18.6168 72.5163 18.0646V18C72.5163 17.4477 72.0685 17 71.5163 17H70.4519H69.4196H42.5808H41.5485H40.4842C39.9319 17 39.4842 17.4477 39.4842 18V18.0646C39.4842 18.6168 39.9319 19.0646 40.4842 19.0646H40.5485C41.1008 19.0646 41.5485 19.5123 41.5485 20.0646V25.2903C41.5485 25.8426 41.9962 26.2903 42.5485 26.2903H42.6131C43.1654 26.2903 43.6131 25.8426 43.6131 25.2903V20.0646C43.6131 19.5123 44.0608 19.0646 44.6131 19.0646H67.3874C67.9396 19.0646 68.3874 19.5123 68.3874 20.0646V25.2903C68.3874 25.8426 68.8351 26.2903 69.3874 26.2903H69.4519C70.0042 26.2903 70.4519 25.8426 70.4519 25.2903V20.0646C70.4519 19.5123 70.8996 19.0646 71.4519 19.0646H71.5163Z" fill="#193498"/>
<path d="M49.8068 30.4194H43.6131V36.6129H49.8066L49.8068 30.4194ZM47.7422 34.5483H45.6777V32.4838H47.7422V34.5483Z" fill="#193498"/>
<path d="M59.0971 30.4194H52.9036V36.6129H59.0971V30.4194ZM57.0325 34.5483H54.968V32.4838H57.0325V34.5483Z" fill="#1597E5"/>
<path d="M68.3874 30.4194H62.1937V36.6129H68.3872L68.3874 30.4194ZM66.3228 34.5483H64.2583V32.4838H66.3228V34.5483Z" fill="#193498"/>
<path d="M66.3228 62.4194H45.6776H44.6454H42.5808V64.484H44.6454V81H67.3551V64.484H69.4196V62.4194H67.3551H66.3228ZM46.7099 64.484H54.9679V68.6131H53.9357C52.2284 68.6131 50.8388 70.0026 50.8388 71.7099C50.8388 73.4173 52.2284 74.8068 53.9357 74.8068H54.9679V78.9359H46.7099V64.484ZM54.9679 72.742H53.9357C53.3668 72.742 52.9034 72.2796 52.9034 71.7097C52.9034 71.1398 53.3668 70.6774 53.9357 70.6774H54.9679V72.742ZM57.0325 70.6774H58.0648C58.6336 70.6774 59.0971 71.1398 59.0971 71.7097C59.0971 72.2796 58.6336 72.742 58.0648 72.742H57.0325V70.6774ZM65.2905 78.9355H57.0325V74.8063H58.0648C59.7721 74.8063 61.1616 73.4168 61.1616 71.7095C61.1616 70.0022 59.7721 68.6127 58.0648 68.6127H57.0325V64.4836H65.2905V78.9355Z" fill="#193498"/>
<path d="M43.6131 45.9032H49.8066V39.7097H43.6131V45.9032ZM45.6777 41.7743H47.7422V43.8388H45.6777V41.7743Z" fill="#193498"/>
<path d="M52.9034 45.9032H59.0968V39.7097H52.9034V45.9032ZM54.9679 41.7743H57.0325V43.8388H54.9679V41.7743Z" fill="#1597E5"/>
<path d="M62.1937 45.9032H68.3872V39.7097H62.1937V45.9032ZM64.2583 41.7743H66.3228V43.8388H64.2583V41.7743Z" fill="#193498"/>
<path d="M43.6131 55.1935H49.8066V49H43.6131V55.1935ZM45.6777 51.0646H47.7422V53.1291H45.6777V51.0646Z" fill="#193498"/>
<path d="M52.9034 55.1935H59.0968V49H52.9034V55.1935ZM54.9679 51.0646H57.0325V53.1291H54.9679V51.0646Z" fill="#1597E5"/>
<path d="M62.1937 55.1935H68.3872V49H62.1937V55.1935ZM64.2583 51.0646H66.3228V53.1291H64.2583V51.0646Z" fill="#193498"/>
<path d="M64.2905 58.2903H43.5808C43.0285 58.2903 42.5808 58.738 42.5808 59.2903V59.3548C42.5808 59.9071 43.0285 60.3548 43.5808 60.3548H64.2905C64.8428 60.3548 65.2905 59.9071 65.2905 59.3548V59.2903C65.2905 58.738 64.8428 58.2903 64.2905 58.2903Z" fill="#193498"/>
<path d="M68.4197 58.2903H68.3551C67.8028 58.2903 67.3551 58.738 67.3551 59.2903V59.3548C67.3551 59.9071 67.8028 60.3548 68.3551 60.3548H68.4197C68.9719 60.3548 69.4197 59.9071 69.4197 59.3548V59.2903C69.4197 58.738 68.9719 58.2903 68.4197 58.2903Z" fill="#193498"/>
</g>
<defs>
<clipPath id="clip0_200_1378">
<rect width="64" height="64" fill="white" transform="translate(24.0002 17)"/>
</clipPath>
</defs>
</svg>
