<svg width="95" height="95" viewBox="0 0 95 95" fill="none" xmlns="http://www.w3.org/2000/svg">
<path opacity="0.2" fill-rule="evenodd" clip-rule="evenodd" d="M25.5991 17.6791C33.856 13.3729 43.2351 18.7464 52.2172 21.1571C57.8273 22.6628 63.4655 24.3099 67.1187 28.8225C70.4103 32.8884 68.8992 38.5505 70.3654 43.5746C73.0293 52.7029 82.7331 60.8448 79.0225 69.6128C74.9804 79.1639 63.0485 87.1942 53.0495 84.4908C43.0541 81.7885 45.9824 65.3925 38.1958 58.575C29.3744 50.8513 10.8586 55.7379 7.40559 44.5275C4.10219 33.8028 15.6358 22.8752 25.5991 17.6791Z" fill="#69DADB"/>
<g clip-path="url(#clip0_200_1374)">
<path d="M40 76V68V61L38 53.5L30.5 43.5L28.5 37V31.5L34.5 20.5L43.5 17H52.5L59 19.5L67.5 29.5L66 41.5L57.5 54.5L56.5 61L55.5 68V76L52.5 78.5H42L40 76Z" fill="#DFE8FF"/>
<rect x="40" y="62" width="16" height="5" fill="#1597E5"/>
<path d="M58.5 72L55.5 68.5L53 72.5L56 75L58.5 72Z" fill="#1597E5"/>
<path d="M43.5 72L40.5 68.5L38 72.5L41 75L43.5 72Z" fill="#1597E5"/>
<path d="M68.6029 33.728L68.5864 33.4833L66.526 33.6144L66.5435 33.8715C66.5611 34.1369 66.5806 34.4022 66.5806 34.6736C66.5806 38.3774 65.3203 42.0211 63.0318 44.9333L59.2734 49.7177C56.8765 52.769 55.4685 56.5233 55.2548 60.3871H53.1614V55.2257C53.1614 53.0075 54.2691 51.1959 55.6719 48.9011C57.7724 45.4668 60.3871 41.1903 60.3871 33.5483H58.3226C58.3226 40.6099 55.9784 44.4427 53.9108 47.8244C52.4005 50.2935 51.0968 52.4263 51.0968 55.2257V60.3871H44.9034V55.2257C44.9034 52.4263 43.5997 50.2937 42.0894 47.8233C40.0216 44.4429 37.6774 40.6091 37.6774 33.5483C37.6774 23.0244 46.1212 18.9232 47.9948 18.1428C49.4008 18.7467 54.8087 21.3985 57.1726 27.3236L59.0895 26.5597C57.4854 22.539 54.7148 19.8935 52.3849 18.2584C55.6953 18.7465 58.7951 20.2134 61.2902 22.5422L62.6993 21.0341C59.2218 17.788 54.7024 16 49.9727 16H46.0284C35.7317 16 27.3549 24.3768 27.3549 34.6736C27.3549 38.8378 28.7721 42.9349 31.3457 46.2101L35.1041 50.9945C37.4288 53.9539 38.7097 57.6558 38.7097 61.4192V62.4515V66.5806H36.6452V68.6451H38.5012L37.2181 70.5703C36.8433 71.1318 36.6452 71.7864 36.6452 72.4615C36.6452 73.8932 37.535 75.1174 38.7891 75.6212C39.1688 78.0946 41.2932 80 43.8709 80H52.1289C54.7064 80 56.8307 78.0946 57.2107 75.6212C58.465 75.1174 59.3546 73.8941 59.3546 72.4615C59.3546 71.7864 59.1565 71.132 58.7817 70.5703L57.4986 68.6451H59.3549V66.5806H57.2903V62.4515V61.4192C57.2903 57.6556 58.5714 53.9539 60.8959 50.9934L64.6543 46.209C67.2277 42.9346 68.6452 38.8376 68.6452 34.6736C68.6452 34.3545 68.6246 34.0419 68.6029 33.728ZM36.7267 49.7177L32.9682 44.9333C30.6797 42.0214 29.4194 38.3774 29.4194 34.6736C29.4194 26.3165 35.6296 19.4014 43.6728 18.2514C40.1662 20.7174 35.6129 25.4722 35.6129 33.5485C35.6129 41.1903 38.2276 45.4659 40.3281 48.9013C41.7309 51.1961 42.8386 53.0077 42.8386 55.226V60.3873H40.7452C40.5317 56.5233 39.1235 52.769 36.7267 49.7177ZM40.4615 73.8065H40.0537C39.3126 73.8065 38.7097 73.2037 38.7097 72.4615C38.7097 72.195 38.7882 71.9371 38.9358 71.7151L40.2581 69.7312L41.5805 71.7151C41.7281 71.9371 41.8065 72.195 41.8065 72.4615C41.8065 73.2037 41.2037 73.8065 40.4615 73.8065ZM55.9452 73.8065H55.5375C54.7963 73.8065 54.1935 73.2037 54.1935 72.4615C54.1935 72.195 54.2719 71.9371 54.4196 71.7151L55.7419 69.7312L57.0642 71.7151C57.2118 71.9371 57.2903 72.195 57.2903 72.4615C57.2903 73.2037 56.6875 73.8065 55.9452 73.8065ZM55.0515 75.8215C54.6374 77.0458 53.4918 77.9354 52.1291 77.9354H43.8711C42.5085 77.9354 41.3628 77.0456 40.9488 75.8215C42.5973 75.583 43.8711 74.1751 43.8711 72.4615C43.8711 71.7864 43.673 71.132 43.2982 70.5703L42.0151 68.6451H53.9851L52.7021 70.5703C52.3273 71.1318 52.1291 71.7864 52.1291 72.4615C52.1291 74.1751 53.4029 75.583 55.0515 75.8215ZM55.2257 66.5806H40.7741V62.4515H55.2257V66.5806Z" fill="#193498"/>
<path d="M59.718 25.0892L59.9703 24.9908L60.0257 24.7257C60.7685 21.1724 63.9265 18.5645 67.6127 18.5645C70.4159 18.5645 73.0166 20.1093 74.3805 22.5441L74.4981 22.754L74.7354 22.7931C77.4491 23.2402 79.4998 25.6029 79.4998 28.387C79.4998 31.5268 76.9459 34.0807 73.8063 34.0807H61.4192C58.8493 34.0807 56.7578 31.9892 56.7578 29.4193C56.7578 27.4797 57.9461 25.7803 59.718 25.0892Z" fill="#1597E5" stroke="#193498"/>
<path d="M19.4602 56.057L19.7125 55.9586L19.7679 55.6935C20.5107 52.1402 23.6687 49.5322 27.3549 49.5322C30.1581 49.5322 32.7588 51.0771 34.1227 53.5119L34.2403 53.7218L34.4776 53.7609C37.1913 54.208 39.242 56.5707 39.242 59.3548C39.242 62.4944 36.6881 65.0483 33.5483 65.0483H21.1614C18.5915 65.0483 16.5 62.9567 16.5 60.3871C16.5 58.4475 17.6883 56.7481 19.4602 56.057Z" fill="#1597E5" stroke="#193498"/>
</g>
<defs>
<clipPath id="clip0_200_1374">
<rect width="64" height="64" fill="white" transform="translate(16 16)"/>
</clipPath>
</defs>
</svg>
