<svg width="112" height="97" viewBox="0 0 112 97" fill="none" xmlns="http://www.w3.org/2000/svg">
<path opacity="0.2" fill-rule="evenodd" clip-rule="evenodd" d="M98.2348 37.1767C99.4207 48.0647 89.5217 56.0418 83.0385 64.8513C78.9893 70.3535 74.7731 75.8262 68.2664 77.8983C62.404 79.7654 56.847 75.6879 50.7155 75.1452C39.5753 74.1591 26.5044 81.3079 18.4855 73.492C9.75051 64.9782 6.05643 48.4709 13.2952 38.6725C20.5313 28.8777 37.2419 39.0991 48.0417 33.4844C60.277 27.1235 62.8433 4.74777 76.6023 5.7599C89.765 6.72817 96.8037 24.0384 98.2348 37.1767Z" fill="#69DADB"/>
<g clip-path="url(#clip0_223_665)">
<rect x="25" y="31" width="62" height="41" fill="#DFE8FF"/>
<path d="M84.9027 30.032H69.4189V24.8707C69.4189 23.7083 68.7686 22.706 67.8189 22.1764C68.175 21.6199 68.3866 20.9625 68.3866 20.2543C68.3866 18.8875 67.6279 17.6593 66.4057 17.0491L64.2575 15.9745V13.5161H62.193V17.2509L65.4827 18.8953C65.9999 19.1544 66.3218 19.6757 66.3218 20.2547C66.3218 20.9215 65.8872 21.4832 65.2896 21.6876V19.7097H63.225V21.7743V22.8066V23.8386V24.8709C63.225 25.4397 62.7627 25.9032 62.1928 25.9032C61.6229 25.9032 61.1605 25.4397 61.1605 24.8709H59.0959C59.0959 25.4397 58.6336 25.9032 58.0637 25.9032C57.4938 25.9032 57.0314 25.4397 57.0314 24.8709H54.9669C54.9669 25.4397 54.5045 25.9032 53.9346 25.9032C53.3647 25.9032 52.9023 25.4397 52.9023 24.8709H50.8378C50.8378 25.4397 50.3754 25.9032 49.8055 25.9032C49.2356 25.9032 48.7732 25.4397 48.7732 24.8709V19.8769L49.8055 16.7801V13.5161H47.741V16.4456L46.7087 19.5424V21.7741H45.6773C43.97 21.7741 42.5805 23.1636 42.5805 24.8709V30.0322H27.0968C25.3895 30.032 24 31.4215 24 33.1288V70.29C24 71.634 24.866 72.7694 26.0645 73.1969V74.4191C26.0645 75.5576 26.9904 76.4836 28.1291 76.4836H32.2582C33.3967 76.4836 34.3227 75.5578 34.3227 74.4191V73.3868H77.6773V74.4191C77.6773 75.5576 78.6031 76.4836 79.7418 76.4836H83.8709C85.0094 76.4836 85.9355 75.5578 85.9355 74.4191V73.1969C87.134 72.7697 88 71.634 88 70.29V33.1288C87.9996 31.4215 86.6101 30.032 84.9027 30.032ZM65.29 24.8709V23.8386H66.3223C66.8922 23.8386 67.3546 24.3021 67.3546 24.8709V25.9032H65.1001C65.2157 25.5789 65.29 25.2342 65.29 24.8709ZM45.6773 23.8386H46.7096V24.8709C46.7096 25.2342 46.7839 25.5791 46.8994 25.9032H44.645V24.8709C44.645 24.3021 45.1074 23.8386 45.6773 23.8386ZM44.645 27.9677H49.8064C50.5991 27.9677 51.3227 27.6683 51.8709 27.1769C52.4191 27.6683 53.1427 27.9677 53.9355 27.9677C54.7282 27.9677 55.4518 27.6683 56 27.1769C56.5482 27.6683 57.2718 27.9677 58.0645 27.9677C58.8573 27.9677 59.5809 27.6683 60.1291 27.1769C60.6773 27.6683 61.4009 27.9677 62.1936 27.9677H67.3546V30.0322H44.645V27.9677ZM32.258 74.4189H28.1291V73.3866H32.2582L32.258 74.4189ZM83.8705 74.4189H79.7414V73.3866H83.8705V74.4189ZM85.935 70.29C85.935 70.8599 85.4726 71.3223 84.9027 71.3223H77.6771H34.3225H27.0968C26.5269 71.3223 26.0645 70.8599 26.0645 70.29V33.1288C26.0645 32.56 26.5269 32.0966 27.0968 32.0966H84.903C85.4729 32.0966 85.9352 32.56 85.9352 33.1288V70.29H85.935Z" fill="#193498"/>
<path d="M52.7328 34.8L41.1593 39.1407L54.1791 46.3746L52.7328 34.8ZM46.0664 39.5049L51.0088 37.6519L51.627 42.5943L46.0664 39.5049Z" fill="#1597E5"/>
<path d="M55.6044 63.7237L59.7634 70.6552L68.7811 65.5023L64.6221 58.5708L55.6044 63.7237ZM60.4941 67.86L58.4595 64.469L63.8933 61.3639L65.928 64.7549L60.4941 67.86Z" fill="#1597E5"/>
<path d="M50.3225 50.677C47.7616 50.677 45.6773 52.7611 45.6773 55.3222C45.6773 57.8834 47.7614 59.9675 50.3225 59.9675C52.8837 59.9675 54.9678 57.8834 54.9678 55.3222C54.9678 52.7611 52.8835 50.677 50.3225 50.677ZM50.3225 57.9029C48.899 57.9029 47.7419 56.7458 47.7419 55.3222C47.7419 53.8987 48.899 52.7415 50.3225 52.7415C51.7461 52.7415 52.9032 53.8987 52.9032 55.3222C52.903 56.7458 51.7459 57.9029 50.3225 57.9029Z" fill="#193498"/>
<path d="M63.7416 42.4191C66.3025 42.4191 68.3868 40.3351 68.3868 37.7739C68.3868 35.2127 66.3028 33.1287 63.7416 33.1287C61.1806 33.1287 59.0964 35.2127 59.0964 37.7739C59.0964 40.3351 61.1806 42.4191 63.7416 42.4191ZM63.7416 35.1934C65.1651 35.1934 66.3223 36.3516 66.3223 37.7741C66.3223 39.1966 65.1651 40.3548 63.7416 40.3548C62.318 40.3548 61.1609 39.1966 61.1609 37.7741C61.1609 36.3516 62.3183 35.1934 63.7416 35.1934Z" fill="#193498"/>
<path d="M40.5159 73.3868H34.3225V30.0322H40.5159V73.3868Z" fill="#1597E5"/>
<path d="M77.6768 73.3868H71.4834V30.0322H77.6768V73.3868Z" fill="#1597E5"/>
<path d="M41.5482 49.645H33.2903C32.1518 49.645 31.2257 50.5709 31.2257 51.7096V57.903C31.2257 59.0415 32.1515 59.9675 33.2903 59.9675H41.5482C42.6867 59.9675 43.6128 59.0417 43.6128 57.903V51.7096C43.6128 50.5709 42.6869 49.645 41.5482 49.645ZM33.2903 57.903V51.7096H41.5482L41.5504 57.903H33.2903Z" fill="#193498"/>
<path d="M78.7093 49.645H70.4514C69.3129 49.645 68.3868 50.5709 68.3868 51.7096V57.903C68.3868 59.0415 69.3127 59.9675 70.4514 59.9675H78.7093C79.8478 59.9675 80.7739 59.0417 80.7739 57.903V51.7096C80.7739 50.5709 79.8478 49.645 78.7093 49.645ZM70.4514 57.903V51.7096H78.7093L78.7115 57.903H70.4514Z" fill="#193498"/>
</g>
<defs>
<clipPath id="clip0_223_665">
<rect width="64" height="64" fill="white" transform="translate(24 13)"/>
</clipPath>
</defs>
</svg>
